<svg width="24" height="24" viewBox="0 0 24 24" fill="none" xmlns="http://www.w3.org/2000/svg">
<path d="M4 19C3.71667 19 3.47917 18.9042 3.2875 18.7125C3.09583 18.5208 3 18.2833 3 18C3 17.7167 3.09583 17.4792 3.2875 17.2875C3.47917 17.0958 3.71667 17 4 17H14C14.2833 17 14.5208 17.0958 14.7125 17.2875C14.9042 17.4792 15 17.7167 15 18C15 18.2833 14.9042 18.5208 14.7125 18.7125C14.5208 18.9042 14.2833 19 14 19H4ZM18 19C17.7167 19 17.4792 18.9042 17.2875 18.7125C17.0958 18.5208 17 18.2833 17 18C17 17.7167 17.0958 17.4792 17.2875 17.2875C17.4792 17.0958 17.7167 17 18 17H20C20.2833 17 20.5208 17.0958 20.7125 17.2875C20.9042 17.4792 21 17.7167 21 18C21 18.2833 20.9042 18.5208 20.7125 18.7125C20.5208 18.9042 20.2833 19 20 19H18ZM4 15C3.71667 15 3.47917 14.9042 3.2875 14.7125C3.09583 14.5208 3 14.2833 3 14C3 13.7167 3.09583 13.4792 3.2875 13.2875C3.47917 13.0958 3.71667 13 4 13H6C6.28333 13 6.52083 13.0958 6.7125 13.2875C6.90417 13.4792 7 13.7167 7 14C7 14.2833 6.90417 14.5208 6.7125 14.7125C6.52083 14.9042 6.28333 15 6 15H4ZM10 15C9.71667 15 9.47917 14.9042 9.2875 14.7125C9.09583 14.5208 9 14.2833 9 14C9 13.7167 9.09583 13.4792 9.2875 13.2875C9.47917 13.0958 9.71667 13 10 13H20C20.2833 13 20.5208 13.0958 20.7125 13.2875C20.9042 13.4792 21 13.7167 21 14C21 14.2833 20.9042 14.5208 20.7125 14.7125C20.5208 14.9042 20.2833 15 20 15H10ZM4 11C3.71667 11 3.47917 10.9042 3.2875 10.7125C3.09583 10.5208 3 10.2833 3 10C3 9.71667 3.09583 9.47917 3.2875 9.2875C3.47917 9.09583 3.71667 9 4 9H15C15.2833 9 15.5208 9.09583 15.7125 9.2875C15.9042 9.47917 16 9.71667 16 10C16 10.2833 15.9042 10.5208 15.7125 10.7125C15.5208 10.9042 15.2833 11 15 11H4ZM19 11C18.7167 11 18.4792 10.9042 18.2875 10.7125C18.0958 10.5208 18 10.2833 18 10C18 9.71667 18.0958 9.47917 18.2875 9.2875C18.4792 9.09583 18.7167 9 19 9H20C20.2833 9 20.5208 9.09583 20.7125 9.2875C20.9042 9.47917 21 9.71667 21 10C21 10.2833 20.9042 10.5208 20.7125 10.7125C20.5208 10.9042 20.2833 11 20 11H19ZM4 7C3.71667 7 3.47917 6.90417 3.2875 6.7125C3.09583 6.52083 3 6.28333 3 6C3 5.71667 3.09583 5.47917 3.2875 5.2875C3.47917 5.09583 3.71667 5 4 5H9C9.28333 5 9.52083 5.09583 9.7125 5.2875C9.90417 5.47917 10 5.71667 10 6C10 6.28333 9.90417 6.52083 9.7125 6.7125C9.52083 6.90417 9.28333 7 9 7H4ZM13 7C12.7167 7 12.4792 6.90417 12.2875 6.7125C12.0958 6.52083 12 6.28333 12 6C12 5.71667 12.0958 5.47917 12.2875 5.2875C12.4792 5.09583 12.7167 5 13 5H20C20.2833 5 20.5208 5.09583 20.7125 5.2875C20.9042 5.47917 21 5.71667 21 6C21 6.28333 20.9042 6.52083 20.7125 6.7125C20.5208 6.90417 20.2833 7 20 7H13Z" fill="black"/>
</svg>
