<svg width="24" height="25" viewBox="0 0 24 25" fill="none" xmlns="http://www.w3.org/2000/svg">
<path d="M7.43066 17.1476C9.81006 14.7685 13.6255 14.7685 16.0049 17.1476L14.5908 18.5616C12.9925 16.9636 10.4431 16.9636 8.84473 18.5616L7.43066 17.1476Z" fill="black"/>
<path d="M5.38477 15.1017C8.90065 11.5861 14.5338 11.5863 18.0498 15.1017L16.6357 16.5167C13.9007 13.7819 9.53377 13.7818 6.79883 16.5167L5.38477 15.1017Z" fill="black"/>
<path d="M3.33887 13.0558C7.99142 8.40355 15.4442 8.40345 20.0967 13.0558L18.6826 14.4708C14.8111 10.5993 8.62447 10.5993 4.75293 14.4708L3.33887 13.0558Z" fill="black"/>
<path d="M1.29297 11.0108C7.08201 5.2218 16.3524 5.22202 22.1416 11.0108L20.7275 12.4249C15.7194 7.41713 7.71502 7.41692 2.70703 12.4249L1.29297 11.0108Z" fill="black"/>
</svg>
