<svg width="24" height="25" viewBox="0 0 24 25" fill="none" xmlns="http://www.w3.org/2000/svg">
<path d="M4.02305 6.89472L4.3766 6.54117L5.64857 7.81313L5.29501 8.16668L5.32885 8.20052L5.50563 8.02374L5.85918 8.3773L5.6824 8.55407L5.89302 8.76468L6.06979 8.58791L6.42335 8.94146L6.24657 9.11824L7.08902 9.96069C7.74494 9.44652 8.47433 9.09998 9.26213 9.0333C10.3351 8.94277 11.3169 9.38672 12.1403 10.21L12.3688 10.4385L12.4206 10.7583V10.761C12.4216 10.7668 12.4235 10.7774 12.4262 10.7914C12.4315 10.82 12.4407 10.8645 12.4531 10.9205C12.4784 11.0345 12.5176 11.1929 12.5726 11.3645C12.695 11.7467 12.8484 12.0478 12.9869 12.1863C12.9881 12.1873 12.9925 12.1911 13 12.1966C13.0097 12.2037 13.0249 12.2138 13.0449 12.225C13.0866 12.2482 13.1453 12.2748 13.2217 12.3009C13.3781 12.3543 13.5703 12.3937 13.7727 12.4197C13.9713 12.4452 14.1583 12.4552 14.2961 12.4584C14.364 12.4599 14.4195 12.4602 14.4549 12.4597C14.4722 12.4595 14.4856 12.4592 14.4929 12.459C14.4943 12.459 14.4961 12.4591 14.4971 12.459L14.4978 12.4584L14.9356 12.4404L15.2456 12.7504C16.5024 14.0073 17.4063 15.1589 17.5106 16.4089C17.6216 17.7427 16.8095 18.81 15.8098 19.8098C14.81 20.8095 13.7426 21.6213 12.4089 21.5106C11.1588 21.4064 10.0074 20.5025 8.75045 19.2456L8.24083 18.736L8.55295 18.1104C8.55586 18.1026 8.56067 18.0885 8.56607 18.0696C8.58103 18.0172 8.5985 17.934 8.59853 17.8328C8.59849 17.6568 8.54984 17.352 8.18559 16.9876C7.81942 16.6214 7.49512 16.4964 7.29963 16.451C7.19811 16.4275 7.12054 16.4236 7.08004 16.4234C7.06903 16.4234 7.06019 16.4232 7.05519 16.4234L6.57595 16.5063L6.20997 16.1403C5.3752 15.3054 4.92463 14.3221 5.02225 13.2442C5.09358 12.4587 5.44688 11.7375 5.95931 11.089L5.11755 10.2473L4.94077 10.424L4.58722 10.0705L4.76399 9.89371L4.55338 9.6831L4.3766 9.85987L4.02305 9.50632L4.19983 9.32954L4.16599 9.29571L3.81244 9.64926L2.54047 8.3773L2.89403 8.02374L2.68272 7.81244L3.81175 6.68342L4.02305 6.89472ZM7.82789 11.9895L11.0706 15.2322L10.9091 15.3938L7.67183 12.1566C7.61954 12.2161 7.57065 12.2747 7.52544 12.332L10.7482 15.5547L10.5866 15.7163L7.38871 12.5184C7.1462 12.8698 7.03662 13.1734 7.01375 13.4251C6.98836 13.7059 7.06116 14.0402 7.37214 14.4395C7.48638 14.4515 7.61382 14.4714 7.75055 14.503C8.28984 14.6281 8.95438 14.9279 9.5998 15.5733C10.3638 16.3375 10.5983 17.1622 10.5983 17.8328C10.5983 17.9744 10.5863 18.1062 10.57 18.2257C11.596 19.1915 12.1806 19.4848 12.5746 19.5177C12.8758 19.5426 13.264 19.4205 13.9564 18.8071L11.7149 16.8446L12.8439 15.7156L14.805 17.9585C15.4196 17.2651 15.542 16.8767 15.517 16.5753C15.4828 16.166 15.1661 15.5527 14.1083 14.4512C13.9412 14.4441 13.7371 14.4317 13.5179 14.4036C13.235 14.3672 12.9009 14.3042 12.5753 14.193C12.2589 14.0848 11.8799 13.9075 11.5727 13.6005C11.0818 13.1096 10.8116 12.4217 10.6681 11.9736C10.6031 11.7707 10.5543 11.5847 10.5196 11.4371C10.1007 11.0879 9.73901 11.0003 9.43062 11.0262C9.17535 11.0478 8.8692 11.1546 8.51981 11.3915L11.7156 14.5873L11.554 14.7489L8.33267 11.5275C8.27504 11.5724 8.21628 11.6211 8.15659 11.6732L11.3931 14.9097L11.2315 15.0713L7.98879 11.8286C7.96205 11.8542 7.93373 11.8795 7.90661 11.9066C7.87927 11.934 7.85377 11.9625 7.82789 11.9895ZM7.07038 16.422C7.07234 16.4217 7.07506 16.421 7.07728 16.4206C7.07861 16.4204 7.0809 16.4201 7.08212 16.4199L7.08419 16.4193H7.08557V16.4179L7.05933 16.4234C7.06217 16.423 7.0663 16.4226 7.07038 16.422Z" fill="black"/>
<path d="M11.7852 3C12.1455 3.00005 12.492 3.12963 12.7627 3.3623L12.874 3.46875L21.3916 12.459C21.9502 13.0489 21.9377 13.9772 21.3633 14.5518L19.207 16.708L18.5 16L17.793 15.293L18.5898 14.4951L9.62793 5H9V3H11.7852ZM18.9443 14.1406L19.6045 13.4814L11.5703 5H10.3154L18.9443 14.1406Z" fill="black"/>
</svg>
