<svg width="24" height="24" viewBox="0 0 24 24" fill="none" xmlns="http://www.w3.org/2000/svg">
<path fill-rule="evenodd" clip-rule="evenodd" d="M19.2002 3L19.3838 3.00977C20.2915 3.10184 20.9999 3.86784 21 4.7998V6.59961H17.4004V16.3193L17.3965 16.3555C17.398 16.4033 17.4004 16.4518 17.4004 16.5L17.3945 16.7314C17.2741 19.109 15.3079 20.9998 12.9004 21L12.668 20.9941C10.3672 20.8773 8.52283 19.0323 8.40625 16.7314L8.40039 16.5C8.40039 14.0147 10.4151 12 12.9004 12C13.5402 12.0001 14.1491 12.1332 14.7002 12.374V3.90039C14.7002 3.40346 15.1027 3.00021 15.5996 3H19.2002ZM12.9004 14C11.5197 14 10.4004 15.1193 10.4004 16.5C10.4004 17.8807 11.5197 19 12.9004 19C14.2809 18.9998 15.4004 17.8806 15.4004 16.5C15.4004 16.5027 15.3998 16.4997 15.3994 16.4854C15.3992 16.4783 15.3988 16.4702 15.3984 16.459C15.3981 16.4489 15.3979 16.4334 15.3975 16.4189L15.3906 16.1865L15.4004 16.1377V14.8623L13.8994 14.207C13.5961 14.0745 13.2595 14.0001 12.9004 14Z" fill="black"/>
<path fill-rule="evenodd" clip-rule="evenodd" d="M3 4.65625C3.00033 3.697 3.96203 3.06478 4.82324 3.3916L4.99414 3.46973L11.7803 7.15625C12.6689 7.63896 12.7312 8.89188 11.8945 9.45996L5.1084 14.0674C4.26797 14.6379 3.14985 14.1087 3.01367 13.1475L3 12.9502V4.65625ZM5 11.7227L9.8877 8.4043L5 5.74902V11.7227Z" fill="black"/>
</svg>
