<svg width="24" height="24" viewBox="0 0 24 24" fill="none" xmlns="http://www.w3.org/2000/svg">
<path d="M18.2998 3C19.791 3 21 4.20903 21 5.7002C20.9999 7.19127 19.7909 8.40039 18.2998 8.40039C17.9209 8.40036 17.5607 8.32065 17.2334 8.17969L14.4805 10.9326C14.6216 11.26 14.7002 11.6208 14.7002 12C14.7002 12.3788 14.6213 12.7392 14.4805 13.0664L17.2334 15.8193C17.5606 15.6785 17.921 15.5996 18.2998 15.5996C19.7909 15.5996 20.9999 16.8087 21 18.2998C21 19.791 19.791 21 18.2998 21C16.8087 20.9999 15.5996 19.7909 15.5996 18.2998C15.5996 17.921 15.6785 17.5606 15.8193 17.2334L13.0664 14.4805C12.7392 14.6213 12.3788 14.7002 12 14.7002C11.6208 14.7002 11.26 14.6216 10.9326 14.4805L8.17969 17.2334C8.32065 17.5607 8.40036 17.9209 8.40039 18.2998C8.40039 19.7909 7.19127 20.9999 5.7002 21C4.20903 21 3 19.791 3 18.2998C3.00011 16.8087 4.20909 15.5996 5.7002 15.5996C6.07869 15.5996 6.43867 15.6787 6.76562 15.8193L9.51855 13.0664C9.37779 12.7393 9.2998 12.3787 9.2998 12C9.2998 11.621 9.37757 11.2599 9.51855 10.9326L6.76562 8.17969C6.43857 8.32042 6.07883 8.40036 5.7002 8.40039C4.20909 8.40039 3.00011 7.19127 3 5.7002C3 4.20903 4.20903 3 5.7002 3C7.19127 3.00011 8.40039 4.20909 8.40039 5.7002C8.40036 6.07883 8.32042 6.43857 8.17969 6.76562L10.9326 9.51855C11.2599 9.37757 11.621 9.2998 12 9.2998C12.3787 9.2998 12.7393 9.37779 13.0664 9.51855L15.8193 6.76562C15.6787 6.43867 15.5996 6.07869 15.5996 5.7002C15.5996 4.20909 16.8087 3.00011 18.2998 3Z" fill="black"/>
</svg>
