<svg width="24" height="24" viewBox="0 0 24 24" fill="none" xmlns="http://www.w3.org/2000/svg">
<g opacity="0.5">
<rect x="2" y="4" width="20" height="16" rx="2" stroke="black" stroke-width="2"/>
<rect x="2" y="14" width="20" height="2" fill="black"/>
<rect x="11" y="15" width="2" height="5" fill="black"/>
</g>
<path d="M18.5449 23C18.2577 23 17.9886 22.9387 17.7374 22.8162C17.4861 22.6936 17.2648 22.5221 17.0734 22.3015L13 17.4669L13.5204 16.9338C13.6998 16.75 13.9152 16.6275 14.1664 16.5662C14.4176 16.5049 14.6629 16.5233 14.9021 16.6213L16.248 17.1728V11.3088C16.248 11.125 16.3108 10.9688 16.4364 10.8401C16.562 10.7114 16.7145 10.6471 16.894 10.6471C17.0734 10.6471 17.2259 10.7114 17.3515 10.8401C17.4772 10.9688 17.54 11.125 17.54 11.3088V15.5H22.2414C22.72 15.5 23.1327 15.6654 23.4796 15.9963C23.8265 16.3272 24 16.7377 24 17.2279V20.3529C24 21.0882 23.7488 21.7132 23.2463 22.2279C22.7439 22.7426 22.1338 23 21.416 23H18.5449ZM13.7178 13.625C13.5623 13.3431 13.4426 13.046 13.3589 12.7335C13.2751 12.421 13.2333 12.0931 13.2333 11.75C13.2333 10.7083 13.5892 9.82292 14.301 9.09375C15.0128 8.36458 15.8771 8 16.894 8C17.9108 8 18.7751 8.36458 19.4869 9.09375C20.1987 9.82292 20.5546 10.7083 20.5546 11.75C20.5546 12.0931 20.5128 12.421 20.429 12.7335C20.3453 13.046 20.2257 13.3431 20.0701 13.625L18.9396 12.9632C19.0353 12.7917 19.1131 12.6017 19.1729 12.3934C19.2327 12.185 19.2626 11.9706 19.2626 11.75C19.2626 11.076 19.0324 10.5031 18.5718 10.0313C18.1112 9.55944 17.5519 9.32353 16.894 9.32353C16.236 9.32353 15.6767 9.55944 15.2162 10.0313C14.7556 10.5031 14.5253 11.076 14.5253 11.75C14.5253 11.9706 14.5552 12.185 14.615 12.3934C14.6748 12.6017 14.7526 12.7917 14.8483 12.9632L13.7178 13.625Z" fill="black"/>
</svg>
